Coordinates
version=1
nRows=15
nColumns=34
inDegrees=yes

Units are S.I. units (second, meters, Newtons, ...)
If the header above contains a line with 'inDegrees', this indicates whether rotational values are in degrees (yes) or radians (no).

endheader
time	pelvis_tilt	pelvis_list	pelvis_rotation	pelvis_tx	pelvis_ty	pelvis_tz	hip_flexion_r	hip_adduction_r	hip_rotation_r	knee_angle_r	ankle_angle_r	subtalar_angle_r	mtp_angle_r	hip_flexion_l	hip_adduction_l	hip_rotation_l	knee_angle_l	ankle_angle_l	subtalar_angle_l	mtp_angle_l	lumbar_extension	lumbar_bending	lumbar_rotation	arm_flex_r	arm_add_r	arm_rot_r	elbow_flex_r	pro_sup_r	arm_flex_l	arm_add_l	arm_rot_l	elbow_flex_l	pro_sup_l
      2.98333330	    -11.15393460	      9.94230268	    -11.30917740	      0.31566470	      0.73810940	      0.00159787	     51.47104789	      7.81758722	      9.10078091	     69.72297067	     24.54523504	     -9.56995523	      0.00000000	     54.91162188	      0.07864933	    -10.72414948	     11.21067474	    -15.85891166	     -1.79500267	      0.00000000	    -17.46059650	     -1.63630913	      4.79839236	     88.53971888	     -6.11644928	     65.66557966	    124.02300905	     96.11261117	    100.54827379	      6.87166300	     83.68756170	    119.11676825	     82.70276960
      3.00000000	    -11.25543976	      9.89052349	    -11.26486854	      0.31465480	      0.73427302	      0.00205970	     52.22617770	      8.11397623	      9.06937217	     70.52847547	     24.99235520	     -9.93252800	      0.00000000	     55.54079741	     -0.10484846	    -11.01143767	     10.76714306	    -16.66917963	     -2.35878738	      0.00000000	    -18.17845520	     -1.83696414	      4.98561457	     89.28971295	     -6.24311609	     66.34242771	    124.94130167	     96.04830951	    101.18295515	      7.11317499	     84.04825240	    119.39792297	     82.39228952
      3.01666670	    -11.30563540	      9.74573455	    -11.19343241	      0.31297950	      0.72916172	      0.00069221	     53.04358088	      8.56924986	      9.05417294	     71.64518036	     25.15398641	     -9.86945139	      0.00000000	     56.20796175	     -0.20752093	    -11.43672057	     10.25769773	    -17.14853104	     -2.48460453	      0.00000000	    -18.98580663	     -1.77851197	      4.62255830	     90.13738662	     -5.87725305	     66.57515069	    124.75118453	     96.00884773	    101.96792695	      7.59830219	     83.94742714	    118.34874088	     82.15374021
      3.03333330	    -11.43174114	      9.85818687	    -11.10231087	      0.31261794	      0.72529479	      0.00142086	     54.07760516	      8.71930929	      9.31404272	     72.61661067	     26.04725597	    -11.25128164	      0.00000000	     56.85570966	     -0.04483354	    -11.91771653	      9.79429686	    -17.33725903	     -3.03381315	      0.00000000	    -19.81326150	     -2.06115444	      4.13839053	     91.06108096	     -5.66403897	     67.31932259	    125.26633309	     95.97118959	    103.04561207	      7.75936521	     84.05672277	    117.41827483	     81.75531399
      3.05000000	    -11.60887925	      9.87189734	    -10.90798477	      0.31057030	      0.72270265	     -0.00083125	     54.77714430	      8.81610780	      9.42747083	     73.31312537	     26.37443747	    -11.75072097	      0.00000000	     57.65623168	      0.14594133	    -12.29187314	      9.34244113	    -17.70088877	     -3.03750296	      0.00000000	    -20.56611092	     -1.86870588	      3.83040144	     91.79529168	     -5.67679828	     67.48658727	    125.23088686	     95.96285005	    103.84363552	      8.10341445	     83.79261842	    116.77529748	     81.59016683
      3.06666670	    -11.71410876	      9.95691506	    -10.65673848	      0.31008141	      0.71914954	     -0.00047899	     55.32817916	      8.90728669	      9.49984058	     74.06539266	     26.55504898	    -12.15837228	      0.00000000	     58.30143290	      0.40771621	    -12.39630424	      8.89938180	    -17.79004463	     -2.92612986	      0.00000000	    -21.43514684	     -1.90233893	      3.31540140	     92.61594032	     -5.67427036	     67.59245836	    125.18751498	     95.94040432	    104.55391422	      8.57614312	     83.72099941	    116.09701110	     81.40885727
      3.08333330	    -11.31686836	      9.89207755	    -10.56851377	      0.30649647	      0.71589604	      0.00017953	     55.61644439	      9.26373490	      9.56067516	     75.11017973	     26.49634144	    -12.39960012	      0.00000000	     58.38287443	      0.41378943	    -12.67648719	      8.53068273	    -17.47702154	     -2.53111174	      0.00000000	    -23.06717810	     -2.08109630	      2.77692355	     93.40573087	     -5.77786567	     67.68095012	    125.30771367	     95.71342888	    106.37058285	      8.96997407	     84.54283727	    114.87495282	     80.52328705
      3.10000000	    -11.35246285	      9.96237754	    -10.25916232	      0.30722095	      0.71275526	     -0.00007913	     56.24059618	      9.21342257	      9.33118613	     76.09493895	     27.03377095	    -12.96685620	      0.00000000	     58.79467605	      0.62472880	    -12.67360271	      8.13165484	    -17.42442772	     -2.45842384	      0.00000000	    -23.83067487	     -2.00169957	      2.38892021	     93.70124317	     -5.79036837	     67.45418301	    125.10245717	     95.65835977	    106.52450388	      8.96488197	     84.48295662	    114.51296822	     80.35571388
      3.11666670	    -11.36467660	     10.06022211	     -9.99454649	      0.30600412	      0.70810111	     -0.00072365	     56.88401494	      9.11328578	      9.21391582	     77.10559219	     27.78294225	    -13.92540522	      0.00000000	     59.26010100	      0.76587605	    -12.47757578	      8.07337405	    -17.02745253	     -2.53282243	      0.00000000	    -24.66284737	     -2.12319742	      1.89539976	     94.10854225	     -5.45135527	     67.45664110	    125.03409086	     95.58715959	    106.91977132	      8.85007913	     84.52065383	    114.16905990	     80.11962429
      3.13333330	    -11.35477484	     10.05321828	     -9.77872002	      0.30707766	      0.70525962	      0.00182217	     57.35894333	      9.10530782	      8.84503321	     78.00051096	     28.10789792	    -14.38753851	      0.00000000	     59.64798538	      0.73464090	    -12.02092843	      8.04142533	    -16.74975695	     -2.09565620	      0.00000000	    -25.39781569	     -2.15005171	      1.59575812	     94.79919139	     -4.73949838	     68.92143667	    124.59378606	     95.19030061	    107.14480195	      8.81685895	     85.33292534	    114.45910436	     78.43903541
      3.15000000	    -11.56039459	     10.12200944	     -9.49099470	      0.30515832	      0.70044839	      0.00078327	     58.27308226	      8.99070668	      8.56157564	     79.07544887	     28.47861829	    -14.64201320	      0.00000000	     60.43489783	      0.75556247	    -11.42194495	      8.28953803	    -16.50689660	     -1.98815984	      0.00000000	    -25.90858361	     -2.37097669	      1.27986192	     95.19382046	     -4.72621834	     69.03993008	    124.52628359	     95.12895212	    107.24373343	      8.92272387	     85.38698310	    114.60728870	     78.19615890
      3.16666670	    -11.53873220	     10.04323320	     -9.50562622	      0.30487429	      0.69852746	      0.00166998	     58.63481104	      9.13196033	      8.25855901	     79.73655013	     28.60258293	    -14.71848279	      0.00000000	     60.67583758	      0.47560141	    -11.32905434	      8.08708163	    -16.50679900	     -1.96839922	      0.00000000	    -26.48040041	     -2.50236843	      1.33637374	     95.03724887	     -4.67742517	     69.22975511	    124.59635589	     95.12967496	    107.10385518	      8.86707201	     85.49573066	    114.63897314	     78.16372783
      3.18333330	    -12.10112713	      9.82779312	     -9.31200067	      0.30260371	      0.69395910	      0.00275162	     59.66105239	      9.40469851	      7.79460568	     80.34629263	     29.48714412	    -14.72128927	      0.00000000	     61.65566313	      0.09564825	    -10.97883900	      8.14792684	    -16.69737268	     -2.60669434	      0.00000000	    -26.52601947	     -2.21399569	      1.44740801	     95.67443355	     -4.81537300	     71.08927127	    125.30505856	     94.80081298	    107.31993677	      8.45073095	     85.94592278	    115.35995102	     76.52130348
      3.20000000	    -12.20474774	      9.77652461	     -9.19717156	      0.30231216	      0.68950487	      0.00346969	     60.25566039	      9.54269703	      7.50273121	     80.96611423	     29.37901381	    -14.69925433	      0.00000000	     62.08878940	     -0.14380412	    -11.42167248	      7.90932020	    -16.82891851	     -2.89673819	      0.00000000	    -27.04307475	     -2.26767242	      1.57916350	     96.15916330	     -4.93312724	     70.82760963	    124.62726961	     94.70971173	    107.90869948	      8.48206149	     85.80023517	    115.22271143	     76.29277887
      3.21666670	    -12.33669770	      9.66708037	     -9.22113376	      0.30136653	      0.68720339	      0.00241157	     60.64915631	      9.69842462	      7.15655470	     81.31449405	     29.28126836	    -14.57263650	      0.00000000	     62.51266351	     -0.40370272	    -11.74063920	      7.73545816	    -17.04876380	     -3.22081158	      0.00000000	    -27.57587941	     -2.23893870	      1.40800519	     96.44336338	     -5.01345488	     70.52637624	    124.50639484	     94.63462318	    108.32058769	      8.08144698	     85.83168032	    115.13664932	     76.14020481
